<svg width="43" height="43" viewBox="0 0 43 43" fill="none" xmlns="http://www.w3.org/2000/svg">
<mask id="mask0_315_4753" style="mask-type:luminance" maskUnits="userSpaceOnUse" x="0" y="0" width="43" height="43">
<path d="M42.8713 2.96653L2.96875 0.17627L0.178491 40.0788L40.0811 42.8691L42.8713 2.96653Z" fill="white"/>
</mask>
<g mask="url(#mask0_315_4753)">
<path d="M37.5181 22.6406L39.7229 25.8295C39.9359 26.1446 40.095 26.482 40.2004 26.8418C40.3057 27.2016 40.3448 27.5763 40.3175 27.966C40.2903 28.3557 40.206 28.7218 40.0645 29.0643C39.9231 29.4068 39.732 29.7133 39.4912 29.9836C39.2504 30.2539 38.9669 30.4821 38.6406 30.6681C38.3143 30.8541 37.9657 30.9864 37.5947 31.0649L33.8011 31.8373C33.7808 32.5015 33.7665 33.1727 33.7582 33.8509C33.75 34.5291 33.7287 35.2063 33.6945 35.8826C33.6618 36.3503 33.5469 36.7795 33.3499 37.1703C33.1529 37.5612 32.8881 37.8951 32.5554 38.172C32.2228 38.449 31.8488 38.6643 31.4334 38.818C31.0181 38.9717 30.5701 39.0317 30.0895 38.9981C29.6868 38.97 29.2956 38.8708 28.9159 38.7007L25.4068 37.0848L23.0583 40.1511C22.713 40.6099 22.2844 40.9519 21.7727 41.1772C21.2609 41.4025 20.7123 41.5012 20.1269 41.4733C19.5554 41.4333 19.0319 41.2662 18.5565 40.9719C18.0811 40.6776 17.6983 40.2723 17.4081 39.756L15.5091 36.3927L11.8093 37.5045C11.4096 37.6201 11.0085 37.6639 10.6058 37.6357C10.1382 37.603 9.70894 37.4881 9.31809 37.2911C8.92723 37.0941 8.58684 36.8288 8.2969 36.4953C8.00696 36.1618 7.79164 35.7878 7.65094 35.3733C7.51023 34.9588 7.44974 34.5173 7.46945 34.0488C7.51668 33.3734 7.58339 32.6993 7.66959 32.0266C7.75579 31.3539 7.84153 30.6877 7.92682 30.028L4.27765 28.7351C3.90823 28.6048 3.58141 28.4254 3.2972 28.1966C3.01298 27.9679 2.77046 27.703 2.56962 27.4018C2.36879 27.1006 2.22219 26.7705 2.12981 26.4116C2.03743 26.0528 1.99837 25.678 2.01263 25.2874C2.03897 24.9108 2.12935 24.5516 2.28376 24.21C2.43818 23.8684 2.64319 23.5499 2.89879 23.2545L5.52594 20.4034L3.32114 17.2145C2.87025 16.5695 2.67205 15.8574 2.72654 15.078C2.75379 14.6883 2.83813 14.3222 2.97955 13.9797C3.12098 13.6372 3.31209 13.3307 3.55289 13.0604C3.79369 12.7901 4.07073 12.5615 4.38401 12.3745C4.69729 12.1876 5.0524 12.0558 5.44934 11.9791L9.24293 11.2067C9.26328 10.5425 9.27758 9.87125 9.28584 9.19309C9.29411 8.51493 9.31536 7.83768 9.3496 7.16134C9.3823 6.69373 9.49716 6.2645 9.69417 5.87364C9.89119 5.48279 10.156 5.14888 10.4886 4.87193C10.8213 4.59498 11.1953 4.37966 11.6107 4.22597C12.026 4.07228 12.474 4.01224 12.9546 4.04584C13.3573 4.074 13.7485 4.17314 14.1281 4.34327L17.6373 5.95918L19.9858 2.89288C20.3311 2.43408 20.7597 2.09205 21.2714 1.86678C21.7832 1.64151 22.3318 1.54282 22.9172 1.57071C23.4887 1.61067 24.0122 1.7778 24.4876 2.0721C24.963 2.3664 25.3458 2.77169 25.636 3.28798L27.535 6.65129L31.2348 5.53949C31.6345 5.42386 32.0356 5.38012 32.4383 5.40828C32.9059 5.44097 33.3351 5.55583 33.726 5.75285C34.1168 5.94986 34.4572 6.21514 34.7472 6.54868C35.0371 6.88221 35.2524 7.25622 35.3931 7.67069C35.5338 8.08516 35.5943 8.52665 35.5746 8.99517C35.5274 9.6706 35.4607 10.3447 35.3745 11.0174C35.2883 11.6901 35.2025 12.3563 35.1173 13.016L38.7664 14.3089C39.1229 14.4382 39.4497 14.6177 39.7469 14.8473C40.0441 15.077 40.2866 15.3419 40.4745 15.6422C40.6623 15.9425 40.8089 16.2726 40.9143 16.6323C41.0196 16.9921 41.0587 17.3669 41.0315 17.7565C40.977 18.5359 40.6816 19.2136 40.1453 19.7895L37.5181 22.6406ZM18.5254 28.5371L30.3855 18.2456L28.3196 15.8691L18.8333 24.1338L15.2285 19.9659L12.8521 22.0317L18.5254 28.5371Z" fill="#1E5F3F"/>
</g>
</svg>
