<svg width="576" height="171" viewBox="0 0 576 171" fill="none" xmlns="http://www.w3.org/2000/svg">
<path d="M354.656 33.1028L355.19 35.0301L355.214 35.0234L355.238 35.0163L354.656 33.1028ZM254.656 73.1028C255.828 74.7233 255.828 74.7236 255.828 74.7239C255.828 74.7239 255.828 74.7238 255.829 74.7232C255.83 74.7219 255.834 74.7195 255.839 74.7158C255.849 74.7085 255.866 74.6964 255.89 74.6796C255.938 74.646 256.013 74.5935 256.116 74.5227C256.322 74.3811 256.639 74.1665 257.073 73.8836C257.94 73.3178 259.27 72.4788 261.099 71.4051C264.756 69.2577 270.404 66.1713 278.319 62.4534C294.148 55.0179 319.042 45.0559 355.19 35.0301L354.121 31.1756C317.771 41.2575 292.664 51.2955 276.618 58.833C268.595 62.6017 262.838 65.745 259.073 67.9558C257.191 69.0612 255.807 69.9333 254.886 70.5339C254.426 70.8342 254.082 71.0666 253.85 71.2262C253.734 71.3061 253.646 71.3677 253.585 71.4106C253.554 71.432 253.531 71.4488 253.514 71.4608C253.506 71.4667 253.499 71.4715 253.494 71.4751C253.492 71.4769 253.489 71.4784 253.488 71.4796C253.487 71.4802 253.486 71.4809 253.486 71.4812C253.485 71.4818 253.484 71.4823 254.656 73.1028ZM355.238 35.0163C464.635 1.74447 518.759 6.54107 545.427 19.1318C558.697 25.397 565.214 33.6107 568.441 40.1432C570.062 43.4253 570.866 46.3123 571.265 48.3587C571.465 49.3816 571.562 50.1928 571.61 50.7357C571.634 51.007 571.646 51.2111 571.651 51.3406C571.654 51.4054 571.655 51.4515 571.656 51.4781C571.656 51.4914 571.656 51.4998 571.656 51.5032C571.656 51.5049 571.656 51.5054 571.656 51.5046C571.656 51.5042 571.656 51.5034 571.656 51.5032C571.656 51.5013 571.656 51.4983 573.656 51.4983C575.656 51.4983 575.656 51.4955 575.656 51.4923C575.656 51.4908 575.656 51.4873 575.656 51.4843C575.656 51.4784 575.656 51.4711 575.656 51.4625C575.656 51.4454 575.655 51.4232 575.655 51.3958C575.654 51.3412 575.652 51.2665 575.648 51.1724C575.64 50.9844 575.624 50.7193 575.595 50.3843C575.536 49.7146 575.42 48.7646 575.191 47.5933C574.735 45.2514 573.828 42.018 572.027 38.3719C568.41 31.0481 561.24 22.1742 547.135 15.5147C519.053 2.25618 463.677 -2.145 354.074 31.1893L355.238 35.0163Z" fill="#14140F"/>
<path d="M0 7.27273C0 3.25611 3.28096 0 7.32824 0H262.971C265.592 0 268.127 0.9295 270.119 2.62086L296.155 24.7343C298.595 26.8069 300 29.835 300 33.0225V106.977C300 110.165 298.595 113.193 296.155 115.266L270.119 137.379C268.127 139.07 265.592 140 262.971 140H7.32824C3.28097 140 0 136.744 0 132.727V7.27273Z" fill="#FF5D01"/>
<path d="M265.191 82.7272C272.273 82.7272 278.015 77.0291 278.015 70C278.015 62.9709 272.273 57.2727 265.191 57.2727C258.108 57.2727 252.366 62.9709 252.366 70C252.366 77.0291 258.108 82.7272 265.191 82.7272Z" fill="#FBFBFB"/>
<path d="M274.667 73.0003C274.631 72.1538 274.686 71.367 274.811 70.6386C275.103 68.932 275.764 67.6619 276.376 66.8029C276.682 66.3753 276.974 66.0502 277.204 65.8218C277.319 65.7075 277.418 65.6168 277.497 65.5491C277.536 65.5152 277.57 65.4869 277.598 65.4643C277.605 65.4582 277.612 65.4525 277.619 65.4473C278.306 67.9008 278.657 70.4419 278.657 73.0003H274.667Z" fill="#14140F"/>
<path d="M523.036 165.336C495.909 170.28 430.628 162.748 377.174 140.868C337.19 124.5 291.798 94.1444 283.103 82.6433C279.832 78.3163 278.824 75.154 278.677 72.9999H274.669C274.815 76.1555 276.202 80.1488 279.912 85.0556C289.273 97.4383 334.953 127.906 375.719 144.6C429.956 166.811 495.568 174.408 523.753 169.272C537.903 166.693 547.636 161.334 553.845 153.988C560.053 146.642 562.542 137.541 562.652 127.859C562.872 108.615 553.704 86.5256 544.672 69.4495C540.134 60.8682 535.584 53.4694 532.169 48.2156C530.461 45.5877 529.036 43.494 528.035 42.0546C527.534 41.3348 527.14 40.7785 526.87 40.4006C526.735 40.2117 526.631 40.0673 526.56 39.9695L526.479 39.8577L526.451 39.8205C526.45 39.8184 526.449 39.8171 524.836 40.9999C523.224 42.1828 523.224 42.1839 523.224 42.1839L523.246 42.2141L523.321 42.3162C523.387 42.4076 523.486 42.5453 523.616 42.7274C523.877 43.0916 524.261 43.6335 524.751 44.3379C525.73 45.747 527.133 47.8061 528.816 50.3955C532.183 55.5761 536.667 62.8696 541.136 71.3196C550.12 88.306 558.86 109.635 558.652 127.814C558.549 136.844 556.24 144.957 550.79 151.406C545.338 157.855 536.549 162.874 523.036 165.336Z" fill="#14140F"/>
<path d="M41.6562 7H11.6562V10.2653H41.6562V7Z" fill="#14140F"/>
<path d="M41.6562 11.8984H11.6562V15.1637H41.6562V11.8984Z" fill="#14140F"/>
<path d="M41.6562 21.6935H11.6562V24.9588H41.6562V21.6935Z" fill="#14140F"/>
<path d="M41.6562 28.2253H11.6562V31.4906H41.6562V28.2253Z" fill="#14140F"/>
<path d="M41.6562 46.9988H11.6562V50.2641H41.6562V46.9988Z" fill="#14140F"/>
<path d="M41.6562 74.7544H11.6562V78.0197H41.6562V74.7544Z" fill="#14140F"/>
<path d="M41.6562 53.5305H11.6562V56.7958H41.6562V53.5305Z" fill="#14140F"/>
<path d="M41.6562 81.2859H11.6562V84.5512H41.6562V81.2859Z" fill="#14140F"/>
<path d="M41.6562 61.6941H11.6562V64.9594H41.6562V61.6941Z" fill="#14140F"/>
<path d="M41.6562 18.4285H11.6562V20.0611H41.6562V18.4285Z" fill="#14140F"/>
<path d="M41.6562 34.7554H11.6562V36.388H41.6562V34.7554Z" fill="#14140F"/>
<path d="M41.6562 43.7356H11.6562V45.3682H41.6562V43.7356Z" fill="#14140F"/>
<path d="M41.6562 71.4895H11.6562V73.1221H41.6562V71.4895Z" fill="#14140F"/>
<path d="M41.6562 58.4292H11.6562V60.0618H41.6562V58.4292Z" fill="#14140F"/>
<path d="M41.6562 86.1824H11.6562V87.815H41.6562V86.1824Z" fill="#14140F"/>
<path d="M41.6562 89.4497H11.6562V91.0824H41.6562V89.4497Z" fill="#14140F"/>
<path d="M41.6562 94.3462H11.6562V95.9788H41.6562V94.3462Z" fill="#14140F"/>
<path d="M41.6562 99.2444H11.6562V102.51H41.6562V99.2444Z" fill="#14140F"/>
<path d="M41.6562 104.143H11.6562V107.409H41.6562V104.143Z" fill="#14140F"/>
<path d="M41.6562 110.673H11.6562V113.938H41.6562V110.673Z" fill="#14140F"/>
<path d="M41.6562 115.571H11.6562V117.204H41.6562V115.571Z" fill="#14140F"/>
<path d="M41.6562 118.836H11.6562V122.102H41.6562V118.836Z" fill="#14140F"/>
<path d="M41.6562 123.735H11.6562V127H41.6562V123.735Z" fill="#14140F"/>
<path d="M41.6562 66.5906H11.6562V68.2232H41.6562V66.5906Z" fill="#14140F"/>
<path d="M41.6562 39.6538H11.6562V40.4701H41.6562V39.6538Z" fill="#14140F"/>
</svg>
