<svg width="933" height="314" viewBox="0 0 933 314" fill="none" xmlns="http://www.w3.org/2000/svg">
<g clip-path="url(#clip0_452_7823)">
<path d="M716 121.103L716.534 123.03L716.558 123.023L716.582 123.016L716 121.103ZM616 161.103C617.172 162.723 617.172 162.724 617.171 162.724C617.171 162.724 617.171 162.724 617.172 162.723C617.174 162.722 617.177 162.719 617.183 162.716C617.193 162.708 617.21 162.696 617.234 162.68C617.281 162.646 617.356 162.593 617.459 162.523C617.665 162.381 617.983 162.166 618.416 161.884C619.283 161.318 620.614 160.479 622.442 159.405C626.099 157.258 631.748 154.171 639.663 150.453C655.492 143.018 680.385 133.056 716.534 123.03L715.465 119.176C679.114 129.257 654.008 139.295 637.962 146.833C629.939 150.602 624.182 153.745 620.417 155.956C618.535 157.061 617.15 157.933 616.23 158.534C615.77 158.834 615.426 159.067 615.194 159.226C615.078 159.306 614.989 159.368 614.928 159.411C614.898 159.432 614.875 159.449 614.858 159.461C614.849 159.467 614.843 159.471 614.838 159.475C614.835 159.477 614.833 159.478 614.831 159.48C614.831 159.48 614.83 159.481 614.829 159.481C614.829 159.482 614.828 159.482 616 161.103ZM716.582 123.016C825.979 89.7445 880.103 94.5411 906.771 107.132C920.041 113.397 926.558 121.611 929.785 128.143C931.406 131.425 932.21 134.312 932.609 136.359C932.809 137.382 932.906 138.193 932.954 138.736C932.978 139.007 932.99 139.211 932.995 139.341C932.998 139.405 932.999 139.451 933 139.478C933 139.491 933 139.5 933 139.503C933 139.505 933 139.505 933 139.505C933 139.504 933 139.503 933 139.503C933 139.501 933 139.498 935 139.498C937 139.498 937 139.495 937 139.492C937 139.491 937 139.487 937 139.484C937 139.478 937 139.471 937 139.462C937 139.445 936.999 139.423 936.999 139.396C936.998 139.341 936.996 139.266 936.992 139.172C936.984 138.984 936.968 138.719 936.939 138.384C936.88 137.715 936.764 136.765 936.535 135.593C936.079 133.251 935.172 130.018 933.371 126.372C929.754 119.048 922.584 110.174 908.479 103.515C880.397 90.2562 825.021 85.855 715.418 119.189L716.582 123.016Z" fill="#14140F"/>
</g>
<g clip-path="url(#clip1_452_7823)">
<path d="M0 16.3117C0 7.303 7.30561 0 16.3176 0H585.549C591.386 0 597.03 2.08474 601.464 5.87822L659.438 55.4755C664.872 60.124 668 66.9156 668 74.0648V239.935C668 247.084 664.872 253.876 659.438 258.525L601.464 308.122C597.03 311.915 591.386 314 585.549 314H16.3176C7.30562 314 0 306.697 0 297.688V16.3117Z" fill="#FF5D01"/>
<path d="M590.492 185.546C606.263 185.546 619.047 172.765 619.047 157C619.047 141.235 606.263 128.455 590.492 128.455C574.721 128.455 561.936 141.235 561.936 157C561.936 172.765 574.721 185.546 590.492 185.546Z" fill="#FBFBFB"/>
</g>
<g clip-path="url(#clip2_452_7823)">
<path d="M614.011 159C613.975 158.154 614.03 157.367 614.155 156.639C614.447 154.932 615.107 153.662 615.72 152.803C616.025 152.375 616.318 152.05 616.548 151.822C616.662 151.707 616.762 151.617 616.84 151.549C616.88 151.515 616.914 151.487 616.942 151.464C616.949 151.458 616.956 151.452 616.963 151.447C617.65 153.901 618.001 156.442 618.001 159H614.011Z" fill="#14140F"/>
<path d="M862.38 251.336C835.253 256.28 769.972 248.748 716.518 226.868C676.534 210.5 631.141 180.144 622.447 168.643C619.175 164.316 618.168 161.154 618.02 159H614.013C614.159 162.156 615.546 166.149 619.256 171.056C628.617 183.438 674.297 213.906 715.063 230.6C769.3 252.811 834.912 260.408 863.097 255.272C877.247 252.693 886.98 247.334 893.189 239.988C899.397 232.642 901.886 223.541 901.996 213.859C902.216 194.615 893.048 172.526 884.016 155.449C879.478 146.868 874.928 139.469 871.513 134.216C869.805 131.588 868.38 129.494 867.379 128.055C866.878 127.335 866.484 126.779 866.214 126.401C866.079 126.212 865.975 126.067 865.904 125.969L865.823 125.858L865.795 125.82C865.794 125.818 865.793 125.817 864.18 127C862.568 128.183 862.568 128.184 862.568 128.184L862.59 128.214L862.665 128.316C862.731 128.408 862.83 128.545 862.96 128.727C863.221 129.092 863.605 129.633 864.095 130.338C865.074 131.747 866.477 133.806 868.16 136.396C871.527 141.576 876.011 148.87 880.48 157.32C889.464 174.306 898.204 195.635 897.996 213.814C897.893 222.844 895.584 230.957 890.134 237.406C884.682 243.855 875.893 248.874 862.38 251.336Z" fill="#14140F"/>
</g>
<g clip-path="url(#clip3_452_7823)">
<path d="M112 24H24V31.2381H112V24Z" fill="#14140F"/>
<path d="M112 34.8582H24V42.0962H112V34.8582Z" fill="#14140F"/>
<path d="M112 56.5706H24V63.8086H112V56.5706Z" fill="#14140F"/>
<path d="M112 71.0496H24V78.2876H112V71.0496Z" fill="#14140F"/>
<path d="M112 112.664H24V119.902H112V112.664Z" fill="#14140F"/>
<path d="M112 174.189H24V181.427H112V174.189Z" fill="#14140F"/>
<path d="M112 127.143H24V134.381H112V127.143Z" fill="#14140F"/>
<path d="M112 188.667H24V195.905H112V188.667Z" fill="#14140F"/>
<path d="M112 145.239H24V152.477H112V145.239Z" fill="#14140F"/>
<path d="M112 49.333H24V52.9521H112V49.333Z" fill="#14140F"/>
<path d="M112 85.5244H24V89.1435H112V85.5244Z" fill="#14140F"/>
<path d="M112 105.431H24V109.05H112V105.431Z" fill="#14140F"/>
<path d="M112 166.951H24V170.57H112V166.951Z" fill="#14140F"/>
<path d="M112 138.001H24V141.621H112V138.001Z" fill="#14140F"/>
<path d="M112 199.521H24V203.14H112V199.521Z" fill="#14140F"/>
<path d="M112 206.763H24V210.382H112V206.763Z" fill="#14140F"/>
<path d="M112 217.617H24V221.236H112V217.617Z" fill="#14140F"/>
<path d="M112 228.475H24V235.713H112V228.475Z" fill="#14140F"/>
<path d="M112 239.334H24V246.572H112V239.334Z" fill="#14140F"/>
<path d="M112 253.809H24V261.047H112V253.809Z" fill="#14140F"/>
<path d="M112 264.667H24V268.286H112V264.667Z" fill="#14140F"/>
<path d="M112 271.904H24V279.142H112V271.904Z" fill="#14140F"/>
<path d="M112 282.763H24V290.001H112V282.763Z" fill="#14140F"/>
<path d="M112 156.093H24V159.712H112V156.093Z" fill="#14140F"/>
<path d="M112 96.3828H24V98.1923H112V96.3828Z" fill="#14140F"/>
</g>
<path d="M195.415 84V60.96H209.639V63.216H197.767V69.92H204.311C204.535 69.92 204.785 69.9307 205.063 69.952C205.351 69.9627 205.639 69.9893 205.927 70.032C207.111 70.192 208.119 70.5973 208.951 71.248C209.793 71.8987 210.433 72.72 210.871 73.712C211.319 74.704 211.543 75.7867 211.543 76.96C211.543 78.1333 211.319 79.216 210.871 80.208C210.433 81.2 209.793 82.0213 208.951 82.672C208.119 83.3227 207.111 83.728 205.927 83.888C205.639 83.92 205.351 83.9467 205.063 83.968C204.785 83.9893 204.535 84 204.311 84H195.415ZM197.767 81.744H204.247C204.439 81.744 204.663 81.7333 204.919 81.712C205.175 81.6907 205.425 81.6587 205.671 81.616C206.855 81.3813 207.724 80.816 208.279 79.92C208.844 79.0133 209.127 78.0267 209.127 76.96C209.127 75.8827 208.844 74.896 208.279 74C207.724 73.104 206.855 72.5387 205.671 72.304C205.425 72.2507 205.175 72.2187 204.919 72.208C204.663 72.1867 204.439 72.176 204.247 72.176H197.767V81.744ZM219.671 84.48C218.37 84.48 217.277 84.2453 216.391 83.776C215.517 83.3067 214.861 82.6827 214.423 81.904C213.986 81.1253 213.767 80.2773 213.767 79.36C213.767 78.4213 213.954 77.6213 214.327 76.96C214.711 76.288 215.229 75.7387 215.879 75.312C216.541 74.8853 217.303 74.56 218.167 74.336C219.042 74.1227 220.007 73.936 221.063 73.776C222.13 73.6053 223.17 73.4613 224.183 73.344C225.207 73.216 226.103 73.0933 226.871 72.976L226.039 73.488C226.071 71.7813 225.741 70.5173 225.047 69.696C224.354 68.8747 223.149 68.464 221.431 68.464C220.247 68.464 219.245 68.7307 218.423 69.264C217.613 69.7973 217.042 70.64 216.711 71.792L214.423 71.12C214.818 69.5733 215.613 68.3733 216.807 67.52C218.002 66.6667 219.554 66.24 221.463 66.24C223.042 66.24 224.381 66.5387 225.479 67.136C226.589 67.7227 227.373 68.576 227.831 69.696C228.045 70.1973 228.183 70.7573 228.247 71.376C228.311 71.9947 228.343 72.624 228.343 73.264V84H226.247V79.664L226.855 79.92C226.269 81.4027 225.357 82.5333 224.119 83.312C222.882 84.0907 221.399 84.48 219.671 84.48ZM219.943 82.448C221.042 82.448 222.002 82.2507 222.823 81.856C223.645 81.4613 224.306 80.9227 224.807 80.24C225.309 79.5467 225.634 78.768 225.783 77.904C225.911 77.3493 225.981 76.7413 225.991 76.08C226.002 75.408 226.007 74.9067 226.007 74.576L226.903 75.04C226.103 75.1467 225.234 75.2533 224.295 75.36C223.367 75.4667 222.45 75.5893 221.543 75.728C220.647 75.8667 219.837 76.032 219.111 76.224C218.621 76.3627 218.146 76.56 217.687 76.816C217.229 77.0613 216.85 77.392 216.551 77.808C216.263 78.224 216.119 78.7413 216.119 79.36C216.119 79.8613 216.242 80.3467 216.487 80.816C216.743 81.2853 217.149 81.6747 217.703 81.984C218.269 82.2933 219.015 82.448 219.943 82.448ZM230.589 84L237.885 75.36L230.893 66.72H233.549L240.365 75.248V66.72H242.541V75.248L249.357 66.72H251.997L245.005 75.36L252.301 84H249.565L242.541 75.472V84H240.365V75.472L233.325 84H230.589ZM259.171 84.48C257.87 84.48 256.777 84.2453 255.891 83.776C255.017 83.3067 254.361 82.6827 253.923 81.904C253.486 81.1253 253.267 80.2773 253.267 79.36C253.267 78.4213 253.454 77.6213 253.827 76.96C254.211 76.288 254.729 75.7387 255.379 75.312C256.041 74.8853 256.803 74.56 257.667 74.336C258.542 74.1227 259.507 73.936 260.563 73.776C261.63 73.6053 262.67 73.4613 263.683 73.344C264.707 73.216 265.603 73.0933 266.371 72.976L265.539 73.488C265.571 71.7813 265.241 70.5173 264.547 69.696C263.854 68.8747 262.649 68.464 260.931 68.464C259.747 68.464 258.745 68.7307 257.923 69.264C257.113 69.7973 256.542 70.64 256.211 71.792L253.923 71.12C254.318 69.5733 255.113 68.3733 256.307 67.52C257.502 66.6667 259.054 66.24 260.963 66.24C262.542 66.24 263.881 66.5387 264.979 67.136C266.089 67.7227 266.873 68.576 267.331 69.696C267.545 70.1973 267.683 70.7573 267.747 71.376C267.811 71.9947 267.843 72.624 267.843 73.264V84H265.747V79.664L266.355 79.92C265.769 81.4027 264.857 82.5333 263.619 83.312C262.382 84.0907 260.899 84.48 259.171 84.48ZM259.443 82.448C260.542 82.448 261.502 82.2507 262.323 81.856C263.145 81.4613 263.806 80.9227 264.307 80.24C264.809 79.5467 265.134 78.768 265.283 77.904C265.411 77.3493 265.481 76.7413 265.491 76.08C265.502 75.408 265.507 74.9067 265.507 74.576L266.403 75.04C265.603 75.1467 264.734 75.2533 263.795 75.36C262.867 75.4667 261.95 75.5893 261.043 75.728C260.147 75.8667 259.337 76.032 258.611 76.224C258.121 76.3627 257.646 76.56 257.187 76.816C256.729 77.0613 256.35 77.392 256.051 77.808C255.763 78.224 255.619 78.7413 255.619 79.36C255.619 79.8613 255.742 80.3467 255.987 80.816C256.243 81.2853 256.649 81.6747 257.203 81.984C257.769 82.2933 258.515 82.448 259.443 82.448ZM279.161 84.48C277.454 84.48 275.998 84.1013 274.793 83.344C273.587 82.576 272.659 81.5093 272.009 80.144C271.369 78.7787 271.049 77.1893 271.049 75.376C271.049 73.552 271.369 71.9573 272.009 70.592C272.649 69.216 273.571 68.1493 274.777 67.392C275.982 66.624 277.427 66.24 279.113 66.24C280.915 66.24 282.462 66.6667 283.753 67.52C285.054 68.3733 285.945 69.5413 286.425 71.024L284.121 71.76C283.705 70.7147 283.059 69.9093 282.185 69.344C281.31 68.7787 280.291 68.496 279.129 68.496C277.411 68.496 276.099 69.04 275.193 70.128C274.286 71.2053 273.763 72.6133 273.625 74.352H281.353V76.368H273.625C273.774 78.1493 274.307 79.5733 275.225 80.64C276.153 81.696 277.47 82.224 279.177 82.224C280.35 82.224 281.347 81.9573 282.169 81.424C283.001 80.88 283.63 80.0907 284.057 79.056L286.425 79.76C285.785 81.296 284.846 82.4693 283.609 83.28C282.371 84.08 280.889 84.48 279.161 84.48ZM289.711 84V66.72H291.999V81.824H298.479V66.72H300.767V81.824H307.231V66.72H309.519V84H289.711ZM320.399 84V66.72H322.495L329.231 80.864L335.983 66.72H338.063V84H335.791V71.744L329.983 84H328.495L322.687 71.744V84H320.399ZM347.484 84.48C346.182 84.48 345.089 84.2453 344.204 83.776C343.329 83.3067 342.673 82.6827 342.236 81.904C341.798 81.1253 341.58 80.2773 341.58 79.36C341.58 78.4213 341.766 77.6213 342.14 76.96C342.524 76.288 343.041 75.7387 343.692 75.312C344.353 74.8853 345.116 74.56 345.98 74.336C346.854 74.1227 347.82 73.936 348.876 73.776C349.942 73.6053 350.982 73.4613 351.996 73.344C353.02 73.216 353.916 73.0933 354.684 72.976L353.852 73.488C353.884 71.7813 353.553 70.5173 352.86 69.696C352.166 68.8747 350.961 68.464 349.244 68.464C348.06 68.464 347.057 68.7307 346.236 69.264C345.425 69.7973 344.854 70.64 344.524 71.792L342.236 71.12C342.63 69.5733 343.425 68.3733 344.62 67.52C345.814 66.6667 347.366 66.24 349.276 66.24C350.854 66.24 352.193 66.5387 353.292 67.136C354.401 67.7227 355.185 68.576 355.644 69.696C355.857 70.1973 355.996 70.7573 356.06 71.376C356.124 71.9947 356.156 72.624 356.156 73.264V84H354.06V79.664L354.668 79.92C354.081 81.4027 353.169 82.5333 351.932 83.312C350.694 84.0907 349.212 84.48 347.484 84.48ZM347.756 82.448C348.854 82.448 349.814 82.2507 350.636 81.856C351.457 81.4613 352.118 80.9227 352.62 80.24C353.121 79.5467 353.446 78.768 353.596 77.904C353.724 77.3493 353.793 76.7413 353.804 76.08C353.814 75.408 353.82 74.9067 353.82 74.576L354.716 75.04C353.916 75.1467 353.046 75.2533 352.108 75.36C351.18 75.4667 350.262 75.5893 349.356 75.728C348.46 75.8667 347.649 76.032 346.924 76.224C346.433 76.3627 345.958 76.56 345.5 76.816C345.041 77.0613 344.662 77.392 344.364 77.808C344.076 78.224 343.932 78.7413 343.932 79.36C343.932 79.8613 344.054 80.3467 344.3 80.816C344.556 81.2853 344.961 81.6747 345.516 81.984C346.081 82.2933 346.828 82.448 347.756 82.448ZM365.009 84V68.896H358.881V66.72H373.489V68.896H367.361V84H365.009ZM390.268 66.72V84H387.98V70.544L378.508 84H376.524V66.72H378.812V80.064L388.3 66.72H390.268ZM408.333 84.48C406.594 84.48 405.122 84.0907 403.917 83.312C402.711 82.5333 401.794 81.4613 401.165 80.096C400.546 78.72 400.226 77.1413 400.205 75.36C400.226 73.5467 400.557 71.9573 401.197 70.592C401.837 69.216 402.759 68.1493 403.965 67.392C405.17 66.624 406.631 66.24 408.349 66.24C410.098 66.24 411.618 66.6667 412.909 67.52C414.21 68.3733 415.101 69.5413 415.581 71.024L413.277 71.76C412.871 70.7253 412.226 69.9253 411.341 69.36C410.466 68.784 409.463 68.496 408.333 68.496C407.063 68.496 406.013 68.7893 405.181 69.376C404.349 69.952 403.73 70.7573 403.325 71.792C402.919 72.8267 402.711 74.016 402.701 75.36C402.722 77.4293 403.202 79.0933 404.141 80.352C405.079 81.6 406.477 82.224 408.333 82.224C409.506 82.224 410.503 81.9573 411.325 81.424C412.157 80.88 412.786 80.0907 413.213 79.056L415.581 79.76C414.941 81.296 414.002 82.4693 412.765 83.28C411.527 84.08 410.05 84.48 408.333 84.48ZM423.734 84.48C422.432 84.48 421.339 84.2453 420.454 83.776C419.579 83.3067 418.923 82.6827 418.486 81.904C418.048 81.1253 417.83 80.2773 417.83 79.36C417.83 78.4213 418.016 77.6213 418.39 76.96C418.774 76.288 419.291 75.7387 419.942 75.312C420.603 74.8853 421.366 74.56 422.23 74.336C423.104 74.1227 424.07 73.936 425.126 73.776C426.192 73.6053 427.232 73.4613 428.246 73.344C429.27 73.216 430.166 73.0933 430.934 72.976L430.102 73.488C430.134 71.7813 429.803 70.5173 429.11 69.696C428.416 68.8747 427.211 68.464 425.494 68.464C424.31 68.464 423.307 68.7307 422.486 69.264C421.675 69.7973 421.104 70.64 420.774 71.792L418.486 71.12C418.88 69.5733 419.675 68.3733 420.87 67.52C422.064 66.6667 423.616 66.24 425.526 66.24C427.104 66.24 428.443 66.5387 429.542 67.136C430.651 67.7227 431.435 68.576 431.894 69.696C432.107 70.1973 432.246 70.7573 432.31 71.376C432.374 71.9947 432.406 72.624 432.406 73.264V84H430.31V79.664L430.918 79.92C430.331 81.4027 429.419 82.5333 428.182 83.312C426.944 84.0907 425.462 84.48 423.734 84.48ZM424.006 82.448C425.104 82.448 426.064 82.2507 426.886 81.856C427.707 81.4613 428.368 80.9227 428.87 80.24C429.371 79.5467 429.696 78.768 429.846 77.904C429.974 77.3493 430.043 76.7413 430.054 76.08C430.064 75.408 430.07 74.9067 430.07 74.576L430.966 75.04C430.166 75.1467 429.296 75.2533 428.358 75.36C427.43 75.4667 426.512 75.5893 425.606 75.728C424.71 75.8667 423.899 76.032 423.174 76.224C422.683 76.3627 422.208 76.56 421.75 76.816C421.291 77.0613 420.912 77.392 420.614 77.808C420.326 78.224 420.182 78.7413 420.182 79.36C420.182 79.8613 420.304 80.3467 420.55 80.816C420.806 81.2853 421.211 81.6747 421.766 81.984C422.331 82.2933 423.078 82.448 424.006 82.448ZM443.739 64.672C442.982 64.672 442.288 64.4853 441.659 64.112C441.03 63.7387 440.528 63.2427 440.155 62.624C439.792 61.9947 439.611 61.3013 439.611 60.544H441.563C441.563 61.1413 441.776 61.6533 442.203 62.08C442.63 62.5067 443.142 62.72 443.739 62.72C444.347 62.72 444.859 62.5067 445.275 62.08C445.702 61.6533 445.915 61.1413 445.915 60.544H447.867C447.867 61.3013 447.68 61.9947 447.307 62.624C446.944 63.2427 446.448 63.7387 445.819 64.112C445.19 64.4853 444.496 64.672 443.739 64.672ZM450.299 66.72V84H448.011V70.544L438.539 84H436.555V66.72H438.843V80.064L448.331 66.72H450.299ZM459.478 84V68.896H453.35V66.72H467.958V68.896H461.83V84H459.478ZM194.135 130.84V124.984C195.116 124.984 195.82 124.669 196.247 124.04C196.673 123.4 197.02 122.381 197.287 120.984C197.468 120.077 197.617 119.101 197.735 118.056C197.852 117.011 197.953 115.816 198.039 114.472C198.124 113.117 198.204 111.533 198.279 109.72H209.703V124.984H211.367V130.84H209.095V127H196.391V130.84H194.135ZM198.119 124.984H207.367V111.736H200.455C200.423 112.547 200.375 113.405 200.311 114.312C200.257 115.219 200.188 116.125 200.103 117.032C200.028 117.939 199.937 118.792 199.831 119.592C199.735 120.381 199.617 121.075 199.479 121.672C199.319 122.44 199.143 123.096 198.951 123.64C198.769 124.184 198.492 124.632 198.119 124.984ZM212.971 127V124.936C213.611 125.053 214.096 125.027 214.427 124.856C214.768 124.675 215.019 124.376 215.179 123.96C215.339 123.533 215.472 123.005 215.579 122.376C215.75 121.331 215.904 120.179 216.043 118.92C216.182 117.661 216.304 116.275 216.411 114.76C216.528 113.235 216.646 111.555 216.763 109.72H228.507V127H226.171V111.976H218.939C218.864 113.107 218.779 114.232 218.683 115.352C218.587 116.472 218.486 117.549 218.379 118.584C218.283 119.608 218.176 120.552 218.059 121.416C217.942 122.28 217.819 123.027 217.691 123.656C217.499 124.605 217.243 125.363 216.923 125.928C216.614 126.493 216.15 126.867 215.531 127.048C214.912 127.229 214.059 127.213 212.971 127ZM243.809 127V120.488H239.777C239.308 120.488 238.823 120.472 238.321 120.44C237.831 120.397 237.372 120.339 236.945 120.264C235.729 120.029 234.695 119.496 233.841 118.664C232.999 117.821 232.577 116.659 232.577 115.176C232.577 113.725 232.972 112.563 233.761 111.688C234.551 110.803 235.505 110.227 236.625 109.96C237.137 109.843 237.655 109.773 238.177 109.752C238.711 109.731 239.169 109.72 239.553 109.72H246.161L246.177 127H243.809ZM232.017 127L236.833 119.752H239.441L234.593 127H232.017ZM239.649 118.472H243.809V111.736H239.649C239.393 111.736 239.036 111.747 238.577 111.768C238.119 111.789 237.687 111.859 237.281 111.976C236.929 112.083 236.577 112.269 236.225 112.536C235.884 112.792 235.596 113.139 235.361 113.576C235.127 114.003 235.009 114.525 235.009 115.144C235.009 116.008 235.244 116.701 235.713 117.224C236.193 117.736 236.791 118.088 237.505 118.28C237.889 118.365 238.273 118.419 238.657 118.44C239.041 118.461 239.372 118.472 239.649 118.472ZM263.999 127.496C262.388 127.485 261.007 127.133 259.855 126.44C258.703 125.747 257.807 124.712 257.167 123.336C256.538 121.96 256.196 120.243 256.143 118.184C256.111 117.277 256.132 116.291 256.207 115.224C256.282 114.147 256.399 113.123 256.559 112.152C256.719 111.181 256.911 110.392 257.135 109.784C257.412 108.995 257.807 108.259 258.319 107.576C258.842 106.883 259.444 106.317 260.127 105.88C260.788 105.432 261.535 105.085 262.367 104.84C263.21 104.584 264.084 104.387 264.991 104.248C265.908 104.109 266.815 103.987 267.711 103.88C268.618 103.773 269.455 103.64 270.223 103.48L270.479 105.608C269.892 105.725 269.199 105.832 268.399 105.928C267.599 106.024 266.762 106.141 265.887 106.28C265.012 106.408 264.175 106.584 263.375 106.808C262.575 107.032 261.892 107.325 261.327 107.688C260.463 108.211 259.796 109 259.327 110.056C258.868 111.112 258.586 112.323 258.479 113.688C259.14 112.653 260.015 111.875 261.103 111.352C262.202 110.829 263.391 110.568 264.671 110.568C266.228 110.568 267.567 110.925 268.687 111.64C269.818 112.355 270.687 113.347 271.295 114.616C271.903 115.885 272.207 117.341 272.207 118.984C272.207 120.701 271.871 122.2 271.199 123.48C270.538 124.76 269.594 125.752 268.367 126.456C267.14 127.149 265.684 127.496 263.999 127.496ZM264.175 125.24C265.988 125.24 267.364 124.675 268.303 123.544C269.252 122.413 269.727 120.909 269.727 119.032C269.727 117.112 269.236 115.597 268.255 114.488C267.284 113.379 265.914 112.824 264.143 112.824C262.372 112.824 261.012 113.379 260.063 114.488C259.114 115.597 258.639 117.112 258.639 119.032C258.639 120.952 259.114 122.467 260.063 123.576C261.012 124.685 262.383 125.24 264.175 125.24ZM276.047 106.44V103.8H278.399V106.44H276.047ZM276.047 127V109.72H278.399V127H276.047ZM289.42 127.48C287.681 127.48 286.161 127.101 284.86 126.344C283.569 125.576 282.551 124.515 281.804 123.16L283.692 121.96C284.321 123.027 285.105 123.837 286.044 124.392C286.983 124.947 288.06 125.224 289.276 125.224C290.545 125.224 291.564 124.931 292.332 124.344C293.1 123.757 293.484 122.952 293.484 121.928C293.484 121.224 293.319 120.664 292.988 120.248C292.668 119.832 292.177 119.533 291.516 119.352C290.865 119.171 290.049 119.08 289.068 119.08H287.02V117.064H289.036C290.231 117.064 291.191 116.851 291.916 116.424C292.652 115.987 293.02 115.304 293.02 114.376C293.02 113.395 292.652 112.669 291.916 112.2C291.191 111.72 290.321 111.48 289.308 111.48C288.284 111.48 287.313 111.693 286.396 112.12C285.489 112.536 284.727 113.075 284.108 113.736L282.604 112.152C283.468 111.203 284.476 110.483 285.628 109.992C286.791 109.491 288.076 109.24 289.484 109.24C290.593 109.24 291.596 109.437 292.492 109.832C293.399 110.216 294.113 110.781 294.636 111.528C295.169 112.275 295.436 113.171 295.436 114.216C295.436 115.197 295.196 116.045 294.716 116.76C294.247 117.475 293.58 118.067 292.716 118.536L292.588 117.656C293.335 117.795 293.953 118.093 294.444 118.552C294.935 119.011 295.297 119.56 295.532 120.2C295.767 120.84 295.884 121.491 295.884 122.152C295.884 123.251 295.596 124.2 295.02 125C294.455 125.789 293.681 126.403 292.7 126.84C291.729 127.267 290.636 127.48 289.42 127.48ZM299.399 127V109.72H301.751V117.224H311.495V109.72H313.847V127H311.495V119.48H301.751V127H299.399ZM325.633 127.48C323.948 127.48 322.486 127.107 321.249 126.36C320.022 125.613 319.068 124.563 318.385 123.208C317.702 121.853 317.361 120.264 317.361 118.44C317.361 116.552 317.697 114.92 318.369 113.544C319.041 112.168 319.985 111.107 321.201 110.36C322.428 109.613 323.873 109.24 325.537 109.24C327.244 109.24 328.7 109.635 329.905 110.424C331.11 111.203 332.022 112.323 332.641 113.784C333.26 115.245 333.542 116.989 333.489 119.016H331.089V118.184C331.046 115.944 330.561 114.253 329.633 113.112C328.716 111.971 327.372 111.4 325.601 111.4C323.745 111.4 322.321 112.003 321.329 113.208C320.348 114.413 319.857 116.131 319.857 118.36C319.857 120.536 320.348 122.227 321.329 123.432C322.321 124.627 323.724 125.224 325.537 125.224C326.774 125.224 327.852 124.941 328.769 124.376C329.697 123.8 330.428 122.973 330.961 121.896L333.153 122.744C332.47 124.248 331.462 125.416 330.129 126.248C328.806 127.069 327.308 127.48 325.633 127.48ZM319.025 119.016V117.048H332.225V119.016H319.025ZM344.208 127.48C342.469 127.48 340.997 127.091 339.792 126.312C338.586 125.533 337.669 124.461 337.04 123.096C336.421 121.72 336.101 120.141 336.08 118.36C336.101 116.547 336.432 114.957 337.072 113.592C337.712 112.216 338.634 111.149 339.84 110.392C341.045 109.624 342.506 109.24 344.224 109.24C345.973 109.24 347.493 109.667 348.784 110.52C350.085 111.373 350.976 112.541 351.456 114.024L349.152 114.76C348.746 113.725 348.101 112.925 347.216 112.36C346.341 111.784 345.338 111.496 344.208 111.496C342.938 111.496 341.888 111.789 341.056 112.376C340.224 112.952 339.605 113.757 339.2 114.792C338.794 115.827 338.586 117.016 338.576 118.36C338.597 120.429 339.077 122.093 340.016 123.352C340.954 124.6 342.352 125.224 344.208 125.224C345.381 125.224 346.378 124.957 347.2 124.424C348.032 123.88 348.661 123.091 349.088 122.056L351.456 122.76C350.816 124.296 349.877 125.469 348.64 126.28C347.402 127.08 345.925 127.48 344.208 127.48ZM356.598 134.68L359.942 125.608L359.99 128.296L352.422 109.72H354.918L361.126 125.256H360.102L365.83 109.72H368.23L358.95 134.68H356.598ZM375.521 120.712C375.521 119.88 375.558 119.149 375.633 118.52C375.718 117.88 375.931 117.24 376.273 116.6C376.593 115.992 376.987 115.491 377.457 115.096C377.926 114.691 378.417 114.312 378.929 113.96C379.441 113.597 379.926 113.171 380.385 112.68C380.801 112.2 381.078 111.715 381.217 111.224C381.355 110.733 381.425 110.216 381.425 109.672C381.425 109.128 381.355 108.643 381.217 108.216C381.089 107.789 380.886 107.421 380.609 107.112C380.182 106.589 379.659 106.232 379.041 106.04C378.422 105.848 377.777 105.752 377.105 105.752C376.443 105.752 375.825 105.848 375.249 106.04C374.683 106.221 374.214 106.504 373.841 106.888C373.478 107.229 373.211 107.64 373.041 108.12C372.881 108.6 372.801 109.107 372.801 109.64H370.369C370.411 108.797 370.593 107.976 370.913 107.176C371.243 106.365 371.723 105.688 372.353 105.144C372.982 104.568 373.713 104.152 374.545 103.896C375.387 103.629 376.235 103.496 377.089 103.496C378.134 103.496 379.126 103.656 380.065 103.976C381.003 104.285 381.793 104.808 382.433 105.544C382.945 106.088 383.318 106.712 383.553 107.416C383.798 108.109 383.921 108.851 383.921 109.64C383.921 110.525 383.755 111.357 383.425 112.136C383.094 112.915 382.63 113.608 382.033 114.216C381.67 114.611 381.259 114.979 380.801 115.32C380.342 115.651 379.899 115.997 379.473 116.36C379.057 116.712 378.737 117.096 378.513 117.512C378.235 118.024 378.081 118.509 378.049 118.968C378.027 119.427 378.017 120.008 378.017 120.712H375.521ZM375.537 127V123.864H378.017V127H375.537Z" fill="#14140F"/>
<path d="M198.011 266.248C197.206 266.243 196.515 266.067 195.939 265.72C195.363 265.373 194.915 264.856 194.595 264.168C194.281 263.48 194.11 262.621 194.083 261.592C194.067 261.139 194.078 260.645 194.115 260.112C194.153 259.573 194.211 259.061 194.291 258.576C194.371 258.091 194.467 257.696 194.579 257.392C194.718 256.997 194.915 256.629 195.171 256.288C195.433 255.941 195.734 255.659 196.075 255.44C196.406 255.216 196.779 255.043 197.195 254.92C197.617 254.792 198.054 254.693 198.507 254.624C198.966 254.555 199.419 254.493 199.867 254.44C200.321 254.387 200.739 254.32 201.123 254.24L201.251 255.304C200.958 255.363 200.611 255.416 200.211 255.464C199.811 255.512 199.393 255.571 198.955 255.64C198.518 255.704 198.099 255.792 197.699 255.904C197.299 256.016 196.958 256.163 196.675 256.344C196.243 256.605 195.91 257 195.675 257.528C195.446 258.056 195.305 258.661 195.251 259.344C195.582 258.827 196.019 258.437 196.563 258.176C197.113 257.915 197.707 257.784 198.347 257.784C199.126 257.784 199.795 257.963 200.355 258.32C200.921 258.677 201.355 259.173 201.659 259.808C201.963 260.443 202.115 261.171 202.115 261.992C202.115 262.851 201.947 263.6 201.611 264.24C201.281 264.88 200.809 265.376 200.195 265.728C199.582 266.075 198.854 266.248 198.011 266.248ZM198.099 265.12C199.006 265.12 199.694 264.837 200.163 264.272C200.638 263.707 200.875 262.955 200.875 262.016C200.875 261.056 200.63 260.299 200.139 259.744C199.654 259.189 198.969 258.912 198.083 258.912C197.198 258.912 196.518 259.189 196.043 259.744C195.569 260.299 195.331 261.056 195.331 262.016C195.331 262.976 195.569 263.733 196.043 264.288C196.518 264.843 197.203 265.12 198.099 265.12ZM204.795 269.84L206.467 265.304L206.491 266.648L202.707 257.36H203.955L207.059 265.128H206.547L209.411 257.36H210.611L205.971 269.84H204.795ZM211.048 267.92V264.992C211.539 264.992 211.891 264.835 212.104 264.52C212.317 264.2 212.491 263.691 212.624 262.992C212.715 262.539 212.789 262.051 212.848 261.528C212.907 261.005 212.957 260.408 213 259.736C213.043 259.059 213.083 258.267 213.12 257.36H218.832V264.992H219.664V267.92H218.528V266H212.176V267.92H211.048ZM213.04 264.992H217.664V258.368H214.208C214.192 258.773 214.168 259.203 214.136 259.656C214.109 260.109 214.075 260.563 214.032 261.016C213.995 261.469 213.949 261.896 213.896 262.296C213.848 262.691 213.789 263.037 213.72 263.336C213.64 263.72 213.552 264.048 213.456 264.32C213.365 264.592 213.227 264.816 213.04 264.992ZM221.274 266L221.258 257.36H222.442V260.616H224.466C224.717 260.616 224.962 260.621 225.202 260.632C225.447 260.643 225.663 260.664 225.85 260.696C226.277 260.776 226.655 260.917 226.986 261.12C227.322 261.323 227.583 261.603 227.77 261.96C227.962 262.317 228.058 262.765 228.058 263.304C228.058 264.045 227.866 264.629 227.482 265.056C227.103 265.483 226.623 265.76 226.042 265.888C225.823 265.936 225.586 265.968 225.33 265.984C225.074 265.995 224.821 266 224.57 266H221.274ZM222.442 264.992H224.522C224.703 264.992 224.906 264.987 225.13 264.976C225.354 264.965 225.551 264.936 225.722 264.888C226.005 264.808 226.261 264.648 226.49 264.408C226.725 264.163 226.842 263.795 226.842 263.304C226.842 262.819 226.73 262.453 226.506 262.208C226.282 261.957 225.983 261.792 225.61 261.712C225.445 261.675 225.266 261.651 225.074 261.64C224.882 261.629 224.698 261.624 224.522 261.624H222.442V264.992ZM229.653 261.464V260.456H234.453V261.464H229.653ZM241.948 266V262.744H239.932C239.697 262.744 239.454 262.736 239.204 262.72C238.958 262.699 238.729 262.669 238.516 262.632C237.908 262.515 237.39 262.248 236.964 261.832C236.542 261.411 236.332 260.829 236.332 260.088C236.332 259.363 236.529 258.781 236.924 258.344C237.318 257.901 237.796 257.613 238.356 257.48C238.612 257.421 238.87 257.387 239.132 257.376C239.398 257.365 239.628 257.36 239.82 257.36H243.124L243.132 266H241.948ZM236.052 266L238.46 262.376H239.764L237.34 266H236.052ZM239.868 261.736H241.948V258.368H239.868C239.74 258.368 239.561 258.373 239.332 258.384C239.102 258.395 238.886 258.429 238.684 258.488C238.508 258.541 238.332 258.635 238.156 258.768C237.985 258.896 237.841 259.069 237.724 259.288C237.606 259.501 237.548 259.763 237.548 260.072C237.548 260.504 237.665 260.851 237.9 261.112C238.14 261.368 238.438 261.544 238.796 261.64C238.988 261.683 239.18 261.709 239.372 261.72C239.564 261.731 239.729 261.736 239.868 261.736ZM245.367 266L245.375 257.36H246.559V261.52L250.415 257.36H251.983L247.935 261.68L252.511 266H250.799L246.559 261.84V266H245.367ZM255.785 266.24C255.134 266.24 254.588 266.123 254.145 265.888C253.708 265.653 253.38 265.341 253.161 264.952C252.942 264.563 252.833 264.139 252.833 263.68C252.833 263.211 252.926 262.811 253.113 262.48C253.305 262.144 253.564 261.869 253.889 261.656C254.22 261.443 254.601 261.28 255.033 261.168C255.47 261.061 255.953 260.968 256.481 260.888C257.014 260.803 257.534 260.731 258.041 260.672C258.553 260.608 259.001 260.547 259.385 260.488L258.969 260.744C258.985 259.891 258.82 259.259 258.473 258.848C258.126 258.437 257.524 258.232 256.665 258.232C256.073 258.232 255.572 258.365 255.161 258.632C254.756 258.899 254.47 259.32 254.305 259.896L253.161 259.56C253.358 258.787 253.756 258.187 254.353 257.76C254.95 257.333 255.726 257.12 256.681 257.12C257.47 257.12 258.14 257.269 258.689 257.568C259.244 257.861 259.636 258.288 259.865 258.848C259.972 259.099 260.041 259.379 260.073 259.688C260.105 259.997 260.121 260.312 260.121 260.632V266H259.073V263.832L259.377 263.96C259.084 264.701 258.628 265.267 258.009 265.656C257.39 266.045 256.649 266.24 255.785 266.24ZM255.921 265.224C256.47 265.224 256.95 265.125 257.361 264.928C257.772 264.731 258.102 264.461 258.353 264.12C258.604 263.773 258.766 263.384 258.841 262.952C258.905 262.675 258.94 262.371 258.945 262.04C258.95 261.704 258.953 261.453 258.953 261.288L259.401 261.52C259.001 261.573 258.566 261.627 258.097 261.68C257.633 261.733 257.174 261.795 256.721 261.864C256.273 261.933 255.868 262.016 255.505 262.112C255.26 262.181 255.022 262.28 254.793 262.408C254.564 262.531 254.374 262.696 254.225 262.904C254.081 263.112 254.009 263.371 254.009 263.68C254.009 263.931 254.07 264.173 254.193 264.408C254.321 264.643 254.524 264.837 254.801 264.992C255.084 265.147 255.457 265.224 255.921 265.224ZM265.399 266V257.36H268.959C269.14 257.36 269.359 257.371 269.615 257.392C269.876 257.413 270.119 257.453 270.343 257.512C270.828 257.64 271.217 257.901 271.511 258.296C271.809 258.691 271.959 259.165 271.959 259.72C271.959 260.029 271.911 260.307 271.815 260.552C271.724 260.792 271.593 261 271.423 261.176C271.343 261.267 271.255 261.347 271.159 261.416C271.063 261.48 270.969 261.533 270.879 261.576C271.049 261.608 271.233 261.683 271.431 261.8C271.74 261.981 271.975 262.227 272.135 262.536C272.295 262.84 272.375 263.211 272.375 263.648C272.375 264.24 272.233 264.723 271.951 265.096C271.668 265.469 271.289 265.725 270.815 265.864C270.601 265.923 270.369 265.96 270.119 265.976C269.873 265.992 269.641 266 269.423 266H265.399ZM266.583 265H269.367C269.479 265 269.62 264.992 269.791 264.976C269.961 264.955 270.113 264.928 270.247 264.896C270.561 264.816 270.791 264.656 270.935 264.416C271.084 264.171 271.159 263.904 271.159 263.616C271.159 263.237 271.047 262.928 270.823 262.688C270.604 262.443 270.311 262.293 269.943 262.24C269.82 262.213 269.692 262.197 269.559 262.192C269.425 262.187 269.305 262.184 269.199 262.184H266.583V265ZM266.583 261.176H268.999C269.137 261.176 269.292 261.168 269.463 261.152C269.639 261.131 269.791 261.096 269.919 261.048C270.196 260.952 270.399 260.787 270.527 260.552C270.66 260.317 270.727 260.061 270.727 259.784C270.727 259.48 270.655 259.213 270.511 258.984C270.372 258.755 270.161 258.595 269.879 258.504C269.687 258.435 269.479 258.395 269.255 258.384C269.036 258.373 268.897 258.368 268.839 258.368H266.583V261.176ZM276.441 266.24C275.79 266.24 275.244 266.123 274.801 265.888C274.364 265.653 274.036 265.341 273.817 264.952C273.598 264.563 273.489 264.139 273.489 263.68C273.489 263.211 273.582 262.811 273.769 262.48C273.961 262.144 274.22 261.869 274.545 261.656C274.876 261.443 275.257 261.28 275.689 261.168C276.126 261.061 276.609 260.968 277.137 260.888C277.67 260.803 278.19 260.731 278.697 260.672C279.209 260.608 279.657 260.547 280.041 260.488L279.625 260.744C279.641 259.891 279.476 259.259 279.129 258.848C278.782 258.437 278.18 258.232 277.321 258.232C276.729 258.232 276.228 258.365 275.817 258.632C275.412 258.899 275.126 259.32 274.961 259.896L273.817 259.56C274.014 258.787 274.412 258.187 275.009 257.76C275.606 257.333 276.382 257.12 277.337 257.12C278.126 257.12 278.796 257.269 279.345 257.568C279.9 257.861 280.292 258.288 280.521 258.848C280.628 259.099 280.697 259.379 280.729 259.688C280.761 259.997 280.777 260.312 280.777 260.632V266H279.729V263.832L280.033 263.96C279.74 264.701 279.284 265.267 278.665 265.656C278.046 266.045 277.305 266.24 276.441 266.24ZM276.577 265.224C277.126 265.224 277.606 265.125 278.017 264.928C278.428 264.731 278.758 264.461 279.009 264.12C279.26 263.773 279.422 263.384 279.497 262.952C279.561 262.675 279.596 262.371 279.601 262.04C279.606 261.704 279.609 261.453 279.609 261.288L280.057 261.52C279.657 261.573 279.222 261.627 278.753 261.68C278.289 261.733 277.83 261.795 277.377 261.864C276.929 261.933 276.524 262.016 276.161 262.112C275.916 262.181 275.678 262.28 275.449 262.408C275.22 262.531 275.03 262.696 274.881 262.904C274.737 263.112 274.665 263.371 274.665 263.68C274.665 263.931 274.726 264.173 274.849 264.408C274.977 264.643 275.18 264.837 275.457 264.992C275.74 265.147 276.113 265.224 276.577 265.224ZM281.9 266L285.548 261.68L282.052 257.36H283.38L286.788 261.624V257.36H287.876V261.624L291.284 257.36H292.604L289.108 261.68L292.756 266H291.388L287.876 261.736V266H286.788V261.736L283.268 266H281.9ZM294.024 266L294.032 257.36H295.216V261.52L299.072 257.36H300.64L296.592 261.68L301.168 266H299.456L295.216 261.84V266H294.024ZM302.129 255.72V254.4H303.305V255.72H302.129ZM302.129 266V257.36H303.305V266H302.129ZM309.287 266.24C308.418 266.24 307.682 266.045 307.079 265.656C306.477 265.267 306.018 264.731 305.703 264.048C305.394 263.36 305.234 262.571 305.223 261.68C305.234 260.773 305.399 259.979 305.719 259.296C306.039 258.608 306.501 258.075 307.103 257.696C307.706 257.312 308.437 257.12 309.295 257.12C310.17 257.12 310.93 257.333 311.575 257.76C312.226 258.187 312.671 258.771 312.911 259.512L311.759 259.88C311.557 259.363 311.234 258.963 310.791 258.68C310.354 258.392 309.853 258.248 309.287 258.248C308.653 258.248 308.127 258.395 307.711 258.688C307.295 258.976 306.986 259.379 306.783 259.896C306.581 260.413 306.477 261.008 306.471 261.68C306.482 262.715 306.722 263.547 307.191 264.176C307.661 264.8 308.359 265.112 309.287 265.112C309.874 265.112 310.373 264.979 310.783 264.712C311.199 264.44 311.514 264.045 311.727 263.528L312.911 263.88C312.591 264.648 312.122 265.235 311.503 265.64C310.885 266.04 310.146 266.24 309.287 266.24ZM316.704 266V258.448H313.64V257.36H320.944V258.448H317.88V266H316.704ZM322.477 266L322.461 257.36H323.645V260.616H325.669C325.92 260.616 326.165 260.621 326.405 260.632C326.65 260.643 326.866 260.664 327.053 260.696C327.48 260.776 327.858 260.917 328.189 261.12C328.525 261.323 328.786 261.603 328.973 261.96C329.165 262.317 329.261 262.765 329.261 263.304C329.261 264.045 329.069 264.629 328.685 265.056C328.306 265.483 327.826 265.76 327.245 265.888C327.026 265.936 326.789 265.968 326.533 265.984C326.277 265.995 326.024 266 325.773 266H322.477ZM323.645 264.992H325.725C325.906 264.992 326.109 264.987 326.333 264.976C326.557 264.965 326.754 264.936 326.925 264.888C327.208 264.808 327.464 264.648 327.693 264.408C327.928 264.163 328.045 263.795 328.045 263.304C328.045 262.819 327.933 262.453 327.709 262.208C327.485 261.957 327.186 261.792 326.813 261.712C326.648 261.675 326.469 261.651 326.277 261.64C326.085 261.629 325.901 261.624 325.725 261.624H323.645V264.992ZM336.563 266V258.448H333.499V257.36H340.803V258.448H337.739V266H336.563ZM344.472 266.24C343.822 266.24 343.275 266.123 342.832 265.888C342.395 265.653 342.067 265.341 341.848 264.952C341.63 264.563 341.52 264.139 341.52 263.68C341.52 263.211 341.614 262.811 341.8 262.48C341.992 262.144 342.251 261.869 342.576 261.656C342.907 261.443 343.288 261.28 343.72 261.168C344.158 261.061 344.64 260.968 345.168 260.888C345.702 260.803 346.222 260.731 346.728 260.672C347.24 260.608 347.688 260.547 348.072 260.488L347.656 260.744C347.672 259.891 347.507 259.259 347.16 258.848C346.814 258.437 346.211 258.232 345.352 258.232C344.76 258.232 344.259 258.365 343.848 258.632C343.443 258.899 343.158 259.32 342.992 259.896L341.848 259.56C342.046 258.787 342.443 258.187 343.04 257.76C343.638 257.333 344.414 257.12 345.368 257.12C346.158 257.12 346.827 257.269 347.376 257.568C347.931 257.861 348.323 258.288 348.552 258.848C348.659 259.099 348.728 259.379 348.76 259.688C348.792 259.997 348.808 260.312 348.808 260.632V266H347.76V263.832L348.064 263.96C347.771 264.701 347.315 265.267 346.696 265.656C346.078 266.045 345.336 266.24 344.472 266.24ZM344.608 265.224C345.158 265.224 345.638 265.125 346.048 264.928C346.459 264.731 346.79 264.461 347.04 264.12C347.291 263.773 347.454 263.384 347.528 262.952C347.592 262.675 347.627 262.371 347.632 262.04C347.638 261.704 347.64 261.453 347.64 261.288L348.088 261.52C347.688 261.573 347.254 261.627 346.784 261.68C346.32 261.733 345.862 261.795 345.408 261.864C344.96 261.933 344.555 262.016 344.192 262.112C343.947 262.181 343.71 262.28 343.48 262.408C343.251 262.531 343.062 262.696 342.912 262.904C342.768 263.112 342.696 263.371 342.696 263.68C342.696 263.931 342.758 264.173 342.88 264.408C343.008 264.643 343.211 264.837 343.488 264.992C343.771 265.147 344.144 265.224 344.608 265.224ZM354.086 266V257.36H360.958V266H359.782V258.488H355.262V266H354.086ZM367.083 266.24C366.289 266.24 365.617 266.04 365.067 265.64C364.518 265.235 364.102 264.688 363.819 264C363.537 263.307 363.395 262.531 363.395 261.672C363.395 260.797 363.537 260.019 363.819 259.336C364.107 258.648 364.529 258.107 365.083 257.712C365.638 257.317 366.321 257.12 367.131 257.12C367.921 257.12 368.598 257.32 369.163 257.72C369.729 258.12 370.161 258.664 370.459 259.352C370.763 260.04 370.915 260.813 370.915 261.672C370.915 262.536 370.763 263.312 370.459 264C370.155 264.688 369.718 265.235 369.147 265.64C368.577 266.04 367.889 266.24 367.083 266.24ZM363.195 269.84V257.36H364.251V263.864H364.379V269.84H363.195ZM366.963 265.144C367.566 265.144 368.067 264.992 368.467 264.688C368.867 264.384 369.166 263.971 369.363 263.448C369.566 262.92 369.667 262.328 369.667 261.672C369.667 261.021 369.569 260.435 369.371 259.912C369.174 259.389 368.873 258.976 368.467 258.672C368.067 258.368 367.558 258.216 366.939 258.216C366.337 258.216 365.835 258.363 365.435 258.656C365.041 258.949 364.745 259.357 364.547 259.88C364.35 260.397 364.251 260.995 364.251 261.672C364.251 262.339 364.35 262.936 364.547 263.464C364.745 263.987 365.043 264.397 365.443 264.696C365.843 264.995 366.35 265.144 366.963 265.144ZM379.536 257.36V266H378.392V259.272L373.656 266H372.664V257.36H373.808V264.032L378.552 257.36H379.536ZM385.358 266.24C384.504 266.24 383.776 266.051 383.174 265.672C382.571 265.288 382.107 264.755 381.782 264.072C381.462 263.389 381.302 262.595 381.302 261.688C381.302 260.776 381.462 259.979 381.782 259.296C382.102 258.608 382.563 258.075 383.166 257.696C383.768 257.312 384.491 257.12 385.334 257.12C386.235 257.12 387.008 257.333 387.654 257.76C388.304 258.187 388.75 258.771 388.99 259.512L387.838 259.88C387.63 259.357 387.307 258.955 386.87 258.672C386.432 258.389 385.923 258.248 385.342 258.248C384.483 258.248 383.827 258.52 383.374 259.064C382.92 259.603 382.659 260.307 382.59 261.176H386.454V262.184H382.59C382.664 263.075 382.931 263.787 383.39 264.32C383.854 264.848 384.512 265.112 385.366 265.112C385.952 265.112 386.451 264.979 386.862 264.712C387.278 264.44 387.592 264.045 387.806 263.528L388.99 263.88C388.67 264.648 388.2 265.235 387.582 265.64C386.963 266.04 386.222 266.24 385.358 266.24ZM390.633 266V257.36H391.681L395.049 264.432L398.425 257.36H399.465V266H398.329V259.872L395.425 266H394.681L391.777 259.872V266H390.633ZM401.695 266V257.36H402.871V261.112H407.743V257.36H408.919V266H407.743V262.24H402.871V266H401.695ZM413.629 266.24C412.978 266.24 412.431 266.123 411.989 265.888C411.551 265.653 411.223 265.341 411.005 264.952C410.786 264.563 410.677 264.139 410.677 263.68C410.677 263.211 410.77 262.811 410.957 262.48C411.149 262.144 411.407 261.869 411.733 261.656C412.063 261.443 412.445 261.28 412.877 261.168C413.314 261.061 413.797 260.968 414.325 260.888C414.858 260.803 415.378 260.731 415.885 260.672C416.397 260.608 416.845 260.547 417.229 260.488L416.813 260.744C416.829 259.891 416.663 259.259 416.317 258.848C415.97 258.437 415.367 258.232 414.509 258.232C413.917 258.232 413.415 258.365 413.005 258.632C412.599 258.899 412.314 259.32 412.149 259.896L411.005 259.56C411.202 258.787 411.599 258.187 412.197 257.76C412.794 257.333 413.57 257.12 414.525 257.12C415.314 257.12 415.983 257.269 416.533 257.568C417.087 257.861 417.479 258.288 417.709 258.848C417.815 259.099 417.885 259.379 417.917 259.688C417.949 259.997 417.965 260.312 417.965 260.632V266H416.917V263.832L417.221 263.96C416.927 264.701 416.471 265.267 415.853 265.656C415.234 266.045 414.493 266.24 413.629 266.24ZM413.765 265.224C414.314 265.224 414.794 265.125 415.205 264.928C415.615 264.731 415.946 264.461 416.197 264.12C416.447 263.773 416.61 263.384 416.685 262.952C416.749 262.675 416.783 262.371 416.789 262.04C416.794 261.704 416.797 261.453 416.797 261.288L417.245 261.52C416.845 261.573 416.41 261.627 415.941 261.68C415.477 261.733 415.018 261.795 414.565 261.864C414.117 261.933 413.711 262.016 413.349 262.112C413.103 262.181 412.866 262.28 412.637 262.408C412.407 262.531 412.218 262.696 412.069 262.904C411.925 263.112 411.853 263.371 411.853 263.68C411.853 263.931 411.914 264.173 412.037 264.408C412.165 264.643 412.367 264.837 412.645 264.992C412.927 265.147 413.301 265.224 413.765 265.224ZM430.674 267.496V266H423.242V257.36H424.418V264.872H428.938V257.36H430.114V264.912H431.85V267.496H430.674ZM433.285 255.72V254.4H434.461V255.72H433.285ZM433.285 266V257.36H434.461V266H433.285ZM436.852 266V257.36H438.028V261.112H442.9V257.36H444.076V266H442.9V262.24H438.028V266H436.852ZM448.785 266.24C448.134 266.24 447.588 266.123 447.145 265.888C446.708 265.653 446.38 265.341 446.161 264.952C445.942 264.563 445.833 264.139 445.833 263.68C445.833 263.211 445.926 262.811 446.113 262.48C446.305 262.144 446.564 261.869 446.889 261.656C447.22 261.443 447.601 261.28 448.033 261.168C448.47 261.061 448.953 260.968 449.481 260.888C450.014 260.803 450.534 260.731 451.041 260.672C451.553 260.608 452.001 260.547 452.385 260.488L451.969 260.744C451.985 259.891 451.82 259.259 451.473 258.848C451.126 258.437 450.524 258.232 449.665 258.232C449.073 258.232 448.572 258.365 448.161 258.632C447.756 258.899 447.47 259.32 447.305 259.896L446.161 259.56C446.358 258.787 446.756 258.187 447.353 257.76C447.95 257.333 448.726 257.12 449.681 257.12C450.47 257.12 451.14 257.269 451.689 257.568C452.244 257.861 452.636 258.288 452.865 258.848C452.972 259.099 453.041 259.379 453.073 259.688C453.105 259.997 453.121 260.312 453.121 260.632V266H452.073V263.832L452.377 263.96C452.084 264.701 451.628 265.267 451.009 265.656C450.39 266.045 449.649 266.24 448.785 266.24ZM448.921 265.224C449.47 265.224 449.95 265.125 450.361 264.928C450.772 264.731 451.102 264.461 451.353 264.12C451.604 263.773 451.766 263.384 451.841 262.952C451.905 262.675 451.94 262.371 451.945 262.04C451.95 261.704 451.953 261.453 451.953 261.288L452.401 261.52C452.001 261.573 451.566 261.627 451.097 261.68C450.633 261.733 450.174 261.795 449.721 261.864C449.273 261.933 448.868 262.016 448.505 262.112C448.26 262.181 448.022 262.28 447.793 262.408C447.564 262.531 447.374 262.696 447.225 262.904C447.081 263.112 447.009 263.371 447.009 263.68C447.009 263.931 447.07 264.173 447.193 264.408C447.321 264.643 447.524 264.837 447.801 264.992C448.084 265.147 448.457 265.224 448.921 265.224ZM461.519 266.24C460.649 266.24 459.889 266.051 459.239 265.672C458.593 265.288 458.084 264.757 457.711 264.08L458.655 263.48C458.969 264.013 459.361 264.419 459.831 264.696C460.3 264.973 460.839 265.112 461.447 265.112C462.081 265.112 462.591 264.965 462.975 264.672C463.359 264.379 463.551 263.976 463.551 263.464C463.551 263.112 463.468 262.832 463.303 262.624C463.143 262.416 462.897 262.267 462.567 262.176C462.241 262.085 461.833 262.04 461.343 262.04H460.319V261.032H461.327C461.924 261.032 462.404 260.925 462.767 260.712C463.135 260.493 463.319 260.152 463.319 259.688C463.319 259.197 463.135 258.835 462.767 258.6C462.404 258.36 461.969 258.24 461.463 258.24C460.951 258.24 460.465 258.347 460.007 258.56C459.553 258.768 459.172 259.037 458.863 259.368L458.111 258.576C458.543 258.101 459.047 257.741 459.623 257.496C460.204 257.245 460.847 257.12 461.551 257.12C462.105 257.12 462.607 257.219 463.055 257.416C463.508 257.608 463.865 257.891 464.127 258.264C464.393 258.637 464.527 259.085 464.527 259.608C464.527 260.099 464.407 260.523 464.167 260.88C463.932 261.237 463.599 261.533 463.167 261.768L463.103 261.328C463.476 261.397 463.785 261.547 464.031 261.776C464.276 262.005 464.457 262.28 464.575 262.6C464.692 262.92 464.751 263.245 464.751 263.576C464.751 264.125 464.607 264.6 464.319 265C464.036 265.395 463.649 265.701 463.159 265.92C462.673 266.133 462.127 266.24 461.519 266.24ZM468.988 266.24C468.337 266.24 467.791 266.123 467.348 265.888C466.911 265.653 466.583 265.341 466.364 264.952C466.145 264.563 466.036 264.139 466.036 263.68C466.036 263.211 466.129 262.811 466.316 262.48C466.508 262.144 466.767 261.869 467.092 261.656C467.423 261.443 467.804 261.28 468.236 261.168C468.673 261.061 469.156 260.968 469.684 260.888C470.217 260.803 470.737 260.731 471.244 260.672C471.756 260.608 472.204 260.547 472.588 260.488L472.172 260.744C472.188 259.891 472.023 259.259 471.676 258.848C471.329 258.437 470.727 258.232 469.868 258.232C469.276 258.232 468.775 258.365 468.364 258.632C467.959 258.899 467.673 259.32 467.508 259.896L466.364 259.56C466.561 258.787 466.959 258.187 467.556 257.76C468.153 257.333 468.929 257.12 469.884 257.12C470.673 257.12 471.343 257.269 471.892 257.568C472.447 257.861 472.839 258.288 473.068 258.848C473.175 259.099 473.244 259.379 473.276 259.688C473.308 259.997 473.324 260.312 473.324 260.632V266H472.276V263.832L472.58 263.96C472.287 264.701 471.831 265.267 471.212 265.656C470.593 266.045 469.852 266.24 468.988 266.24ZM469.124 265.224C469.673 265.224 470.153 265.125 470.564 264.928C470.975 264.731 471.305 264.461 471.556 264.12C471.807 263.773 471.969 263.384 472.044 262.952C472.108 262.675 472.143 262.371 472.148 262.04C472.153 261.704 472.156 261.453 472.156 261.288L472.604 261.52C472.204 261.573 471.769 261.627 471.3 261.68C470.836 261.733 470.377 261.795 469.924 261.864C469.476 261.933 469.071 262.016 468.708 262.112C468.463 262.181 468.225 262.28 467.996 262.408C467.767 262.531 467.577 262.696 467.428 262.904C467.284 263.112 467.212 263.371 467.212 263.68C467.212 263.931 467.273 264.173 467.396 264.408C467.524 264.643 467.727 264.837 468.004 264.992C468.287 265.147 468.66 265.224 469.124 265.224ZM194.539 288V279.36H201.411V288H200.235V280.488H195.715V288H194.539ZM207.265 288.24C206.406 288.24 205.673 288.045 205.065 287.656C204.457 287.267 203.99 286.728 203.665 286.04C203.339 285.352 203.177 284.563 203.177 283.672C203.177 282.765 203.342 281.971 203.673 281.288C204.003 280.605 204.473 280.075 205.081 279.696C205.694 279.312 206.422 279.12 207.265 279.12C208.129 279.12 208.865 279.315 209.473 279.704C210.086 280.088 210.553 280.624 210.873 281.312C211.198 281.995 211.361 282.781 211.361 283.672C211.361 284.579 211.198 285.376 210.873 286.064C210.547 286.747 210.078 287.28 209.465 287.664C208.851 288.048 208.118 288.24 207.265 288.24ZM207.265 287.112C208.225 287.112 208.939 286.795 209.409 286.16C209.878 285.52 210.113 284.691 210.113 283.672C210.113 282.627 209.875 281.795 209.401 281.176C208.931 280.557 208.219 280.248 207.265 280.248C206.619 280.248 206.086 280.395 205.665 280.688C205.249 280.976 204.937 281.379 204.729 281.896C204.526 282.408 204.425 283 204.425 283.672C204.425 284.712 204.665 285.547 205.145 286.176C205.625 286.8 206.331 287.112 207.265 287.112ZM216.709 288.24C215.84 288.24 215.104 288.045 214.501 287.656C213.899 287.267 213.44 286.731 213.125 286.048C212.816 285.36 212.656 284.571 212.645 283.68C212.656 282.773 212.821 281.979 213.141 281.296C213.461 280.608 213.923 280.075 214.525 279.696C215.128 279.312 215.859 279.12 216.717 279.12C217.592 279.12 218.352 279.333 218.997 279.76C219.648 280.187 220.093 280.771 220.333 281.512L219.181 281.88C218.979 281.363 218.656 280.963 218.213 280.68C217.776 280.392 217.275 280.248 216.709 280.248C216.075 280.248 215.549 280.395 215.133 280.688C214.717 280.976 214.408 281.379 214.205 281.896C214.003 282.413 213.899 283.008 213.893 283.68C213.904 284.715 214.144 285.547 214.613 286.176C215.083 286.8 215.781 287.112 216.709 287.112C217.296 287.112 217.795 286.979 218.205 286.712C218.621 286.44 218.936 286.045 219.149 285.528L220.333 285.88C220.013 286.648 219.544 287.235 218.925 287.64C218.307 288.04 217.568 288.24 216.709 288.24ZM220.95 288V286.968C221.27 287.027 221.513 287.013 221.678 286.928C221.849 286.837 221.974 286.688 222.054 286.48C222.134 286.267 222.201 286.003 222.254 285.688C222.34 285.165 222.417 284.589 222.486 283.96C222.556 283.331 222.617 282.637 222.67 281.88C222.729 281.117 222.788 280.277 222.846 279.36H228.718V288H227.55V280.488H223.934C223.897 281.053 223.854 281.616 223.806 282.176C223.758 282.736 223.708 283.275 223.654 283.792C223.606 284.304 223.553 284.776 223.494 285.208C223.436 285.64 223.374 286.013 223.31 286.328C223.214 286.803 223.086 287.181 222.926 287.464C222.772 287.747 222.54 287.933 222.23 288.024C221.921 288.115 221.494 288.107 220.95 288ZM232.185 291.84L233.857 287.304L233.881 288.648L230.097 279.36H231.345L234.449 287.128H233.937L236.801 279.36H238.001L233.361 291.84H232.185ZM239.391 288V279.36H245.311V280.488H240.567V288H239.391ZM253.692 279.36V288H252.548V281.272L247.812 288H246.82V279.36H247.964V286.032L252.708 279.36H253.692Z" fill="#14140F"/>
<defs>
<clipPath id="clip0_452_7823">
<rect width="319" height="70" fill="white" transform="translate(614 93)"/>
</clipPath>
<clipPath id="clip1_452_7823">
<rect width="668" height="314" fill="white"/>
</clipPath>
<clipPath id="clip2_452_7823">
<rect width="236" height="132" fill="white" transform="translate(614 125)"/>
</clipPath>
<clipPath id="clip3_452_7823">
<rect width="88" height="266" fill="white" transform="translate(24 24)"/>
</clipPath>
</defs>
</svg>
