<svg width="25" height="24" viewBox="0 0 25 24" fill="none" xmlns="http://www.w3.org/2000/svg">
<path d="M7.03906 6.59999V16.05C7.03906 18.786 9.27999 21 12.0391 21C14.7982 21 17.0391 18.786 17.0391 16.05V7.49998H15.6755V16.05C15.6755 18.039 14.0482 19.65 12.0391 19.65C10.03 19.65 8.4027 18.039 8.4027 16.05V6.59999C8.4027 5.35799 9.42087 4.35 10.6755 4.35C11.93 4.35 12.9482 5.35799 12.9482 6.59999V14.25C12.9482 14.745 12.5436 15.15 12.0391 15.15C11.5346 15.15 11.13 14.745 11.13 14.25V7.49998H9.76634V14.25C9.76634 15.492 10.7846 16.5 12.0391 16.5C13.2936 16.5 14.3119 15.492 14.3119 14.25V6.59999C14.3119 4.61097 12.6846 3 10.6755 3C8.66639 3 7.03906 4.61097 7.03906 6.59999Z" fill="#14140F"/>
</svg>
