<svg width="523" height="354" viewBox="0 0 523 354" fill="none" xmlns="http://www.w3.org/2000/svg">
<path d="M8.4635 85.4689V90.7017H119.201V253.79H428.842V18.3148H741.305V12.2099H423.905V247.685H123.433V85.4689H8.4635Z" fill="#FF9C61"/>
<path d="M415.44 15.6984C415.44 24.4197 421.083 31.3967 428.136 31.3967C435.189 31.3967 440.832 24.4197 440.832 15.6984C440.832 6.97705 435.189 0 428.136 0C421.083 0 415.44 6.97705 415.44 15.6984Z" fill="#FF9C61"/>
<path d="M0.00069046 88.0851C0.00069046 95.0621 4.23265 100.295 9.87531 100.295C15.518 100.295 19.75 94.19 19.75 88.0851C19.75 81.108 15.518 75.8752 9.87531 75.8752C4.23265 75.8752 0.00069046 81.108 0.00069046 88.0851Z" fill="#FF9C61"/>
<path d="M415.44 250.302C415.44 259.023 421.083 266 428.136 266C435.189 266 440.832 259.023 440.832 250.302C440.832 241.58 435.189 234.603 428.136 234.603C421.083 234.603 415.44 242.452 415.44 250.302Z" fill="#FF9C61"/>
<path d="M107.21 250.302C107.21 259.023 112.852 266 119.906 266C126.959 266 132.602 259.023 132.602 250.302C132.602 241.58 126.959 234.603 119.906 234.603C112.852 235.475 107.21 242.452 107.21 250.302Z" fill="#FF9C61"/>
<path d="M119.905 99.423C115.62 99.423 112.147 95.1279 112.147 89.8296C112.147 84.5313 115.62 80.2361 119.905 80.2361C124.19 80.2361 127.664 84.5313 127.664 89.8296C127.664 95.1279 124.19 99.423 119.905 99.423Z" fill="#FF9C61"/>
<path d="M64.8788 150.889V156.992H189.088V340.053H538.427V75.0499H889.883V68.9479H532.781V333.079H194.734V150.889H64.8788Z" fill="#E0611A"/>
<path d="M54.9985 153.504C54.9985 161.35 59.9387 167.452 66.2903 167.452C72.6419 167.452 77.582 161.35 77.582 153.504C77.582 145.659 72.6419 139.557 66.2903 139.557C60.6444 139.557 54.9985 145.659 54.9985 153.504Z" fill="#E0611A"/>
<path d="M189.795 354C182 354 175.681 346.194 175.681 336.566C175.681 326.937 182 319.131 189.795 319.131C197.591 319.131 203.91 326.937 203.91 336.566C203.91 346.194 197.591 354 189.795 354Z" fill="#E0611A"/>
<path d="M189.794 167.452C184.727 167.452 180.62 162.378 180.62 156.119C180.62 149.861 184.727 144.787 189.794 144.787C194.861 144.787 198.969 149.861 198.969 156.119C198.969 162.378 194.861 167.452 189.794 167.452Z" fill="#E0611A"/>
</svg>
