<svg width="39" height="507" viewBox="0 0 39 507" fill="none" xmlns="http://www.w3.org/2000/svg">
<path d="M4.14645 415.383C4.34171 415.578 4.65829 415.578 4.85355 415.383L8.03553 412.201C8.2308 412.006 8.2308 411.689 8.03553 411.494C7.84027 411.299 7.52369 411.299 7.32843 411.494L4.5 414.322L1.67157 411.494C1.47631 411.299 1.15973 411.299 0.964466 411.494C0.769204 411.689 0.769204 412.006 0.964466 412.201L4.14645 415.383ZM4 0.970215L4 415.029H5L5 0.970215H4Z" fill="#FF5D01"/>
<path d="M19.6464 448.413C19.8417 448.608 20.1583 448.608 20.3536 448.413L23.5355 445.231C23.7308 445.035 23.7308 444.719 23.5355 444.524C23.3403 444.328 23.0237 444.328 22.8284 444.524L20 447.352L17.1716 444.524C16.9763 444.328 16.6597 444.328 16.4645 444.524C16.2692 444.719 16.2692 445.035 16.4645 445.231L19.6464 448.413ZM19.5 34L19.5 448.059H20.5L20.5 34H19.5Z" fill="#FF5D01"/>
<path d="M34.6464 506.413C34.8417 506.608 35.1583 506.608 35.3536 506.413L38.5355 503.231C38.7308 503.035 38.7308 502.719 38.5355 502.524C38.3403 502.328 38.0237 502.328 37.8284 502.524L35 505.352L32.1716 502.524C31.9763 502.328 31.6597 502.328 31.4645 502.524C31.2692 502.719 31.2692 503.035 31.4645 503.231L34.6464 506.413ZM34.5 92L34.5 506.059H35.5L35.5 92H34.5Z" fill="#FF5D01"/>
</svg>
